<?xml version="1.0" standalone="no"?>
<!DOCTYPE svg PUBLIC "-//W3C//DTD SVG 20010904//EN"
 "http://www.w3.org/TR/2001/REC-SVG-20010904/DTD/svg10.dtd">
<svg version="1.0" xmlns="http://www.w3.org/2000/svg"
 width="512.000000pt" height="512.000000pt" viewBox="0 0 512.000000 512.000000"
 preserveAspectRatio="xMidYMid meet">

<g transform="translate(0.000000,512.000000) scale(0.100000,-0.100000)"
fill="#000000" stroke="none">
<path d="M2330 5110 c-494 -48 -950 -230 -1350 -538 -195 -150 -448 -432 -594
-662 -63 -99 -186 -351 -230 -471 -49 -134 -102 -340 -128 -499 -31 -195 -31
-565 0 -760 45 -276 116 -498 237 -745 132 -269 269 -460 489 -681 221 -220
412 -357 681 -489 247 -121 469 -192 745 -237 195 -31 565 -31 760 0 276 45
498 116 745 237 269 132 460 269 681 489 220 221 357 412 489 681 88 179 132
296 180 476 63 240 78 371 78 649 0 278 -15 409 -78 649 -48 180 -92 297 -180
476 -132 269 -269 460 -489 681 -221 220 -412 357 -681 489 -246 121 -474 193
-740 235 -147 23 -475 34 -615 20z m441 -440 c390 -40 758 -187 1082 -432 105
-80 305 -280 385 -385 199 -263 335 -558 397 -861 126 -612 -15 -1220 -397
-1725 -80 -105 -280 -305 -385 -385 -573 -434 -1294 -556 -1963 -333 -313 105
-584 274 -825 516 -242 241 -411 512 -516 825 -223 669 -101 1390 333 1963 80
105 280 305 385 385 441 334 969 485 1504 432z"/>
<path d="M1635 3593 c-112 -59 -158 -189 -104 -296 14 -27 148 -169 367 -389
l346 -348 -346 -347 c-229 -231 -353 -363 -368 -392 -31 -62 -26 -160 12 -214
43 -63 92 -91 169 -95 53 -3 74 0 110 18 29 15 161 139 392 368 l347 346 348
-346 c230 -229 362 -353 391 -368 36 -18 57 -21 110 -18 77 4 126 32 169 95
38 54 43 152 12 214 -15 29 -139 161 -368 391 l-346 348 346 348 c219 220 353
362 367 389 27 55 28 140 2 192 -22 42 -80 97 -118 112 -44 16 -131 11 -176
-12 -27 -14 -169 -148 -389 -367 l-348 -346 -347 346 c-221 219 -363 353 -390
367 -51 26 -144 28 -188 4z"/>
</g>
</svg>
